<svg xmlns="http://www.w3.org/2000/svg" viewBox="0 0 1920 1000" fill="none">
  <path d="M6.31181e-05 44.5228V7.09741e-05H39.1838M6.31181e-05 44.5228V89.0457M6.31181e-05 44.5228H39.1838M6.31181e-05 89.0457L0 133.568M6.31181e-05 89.0457H39.1838M0 133.568V178.091M0 133.568H39.1837M0 178.091V222.614M0 178.091H39.1837M0 222.614V267.137M0 222.614H39.1837M0 267.137V311.659M0 267.137H39.1837M0 311.659V356.182M0 311.659H39.1837M0 356.182V400.705M0 356.182H39.1837M0 400.705V445.228M0 400.705H39.1837M0 445.228V489.751M0 445.228H39.1837M0 489.751V534.273M0 489.751H39.1837M0 534.273V578.796M0 534.273H39.1837M0 578.796V623.319M0 578.796H39.1837M0 623.319V667.841M0 623.319H39.1837M0 667.841V712.364M0 667.841H39.1837M0 712.364V756.887M0 712.364H39.1837M0 756.887V801.41M0 756.887H39.1837M0 801.41V845.933M0 801.41H39.1837M0 845.933V890.455M0 845.933H39.1837M0 890.455V934.978M0 890.455H39.1837M0 934.978V979.501M0 934.978H39.1837M0 979.501V1022H39.1837M0 979.501H39.1837M39.1838 7.09741e-05V44.5228M39.1838 7.09741e-05H78.3675M39.1838 44.5228V89.0457M39.1838 44.5228L78.3675 44.5227M39.1838 89.0457L39.1837 133.568M39.1838 89.0457L78.3675 89.0456M39.1837 133.568V178.091M39.1837 133.568L78.3674 133.568M39.1837 178.091V222.614M39.1837 178.091L78.3674 178.091M39.1837 222.614V267.137M39.1837 222.614L78.3674 222.614M39.1837 267.137V311.659M39.1837 267.137L78.3674 267.137M39.1837 311.659V356.182M39.1837 311.659H78.3674M39.1837 356.182V400.705M39.1837 356.182H78.3674M39.1837 400.705V445.228M39.1837 400.705H78.3674M39.1837 445.228V489.751M39.1837 445.228H78.3674M39.1837 489.751V534.273M39.1837 489.751H78.3674M39.1837 534.273V578.796M39.1837 534.273H78.3674M39.1837 578.796V623.319M39.1837 578.796H78.3674M39.1837 623.319V667.841M39.1837 623.319H78.3674M39.1837 667.841V712.364M39.1837 667.841H78.3674M39.1837 712.364V756.887M39.1837 712.364H78.3674M39.1837 756.887V801.41M39.1837 756.887H78.3674M39.1837 801.41V845.933M39.1837 801.41H78.3674M39.1837 845.933V890.455M39.1837 845.933H78.3674M39.1837 890.455V934.978M39.1837 890.455H78.3674M39.1837 934.978V979.501M39.1837 934.978H78.3674M39.1837 979.501V1022M39.1837 979.501H78.3674M39.1837 1022H78.3674M78.3675 7.09741e-05V44.5227M78.3675 7.09741e-05H108.646M78.3675 44.5227V89.0456M78.3675 44.5227L108.646 44.5228M78.3675 44.5227H117.551M78.3675 44.5227H76.5863M78.3675 89.0456L78.3674 133.568M78.3675 89.0456L108.646 89.0457M78.3675 89.0456H117.551M78.3675 89.0456H76.5863M78.3674 133.568V178.091M78.3674 133.568L108.646 133.568M78.3674 133.568H117.551M78.3674 133.568H76.5863M78.3674 178.091V222.614M78.3674 178.091L108.646 178.091M78.3674 178.091H117.551M78.3674 178.091H76.5863M78.3674 222.614V267.137M78.3674 222.614L108.646 222.614M78.3674 222.614H117.551M78.3674 222.614H76.5863M78.3674 267.137V311.659M78.3674 267.137L108.646 267.137M78.3674 267.137H117.551M78.3674 267.137H76.5863M78.3674 311.659V356.182M78.3674 311.659H108.646M78.3674 311.659L117.551 311.659M78.3674 311.659L76.5863 311.659M78.3674 356.182V400.705M78.3674 356.182H108.646M78.3674 356.182L117.551 356.182M78.3674 356.182L76.5863 356.182M78.3674 400.705V445.228M78.3674 400.705H108.646M78.3674 400.705L117.551 400.705M78.3674 400.705L76.5863 400.705M78.3674 445.228V489.751M78.3674 445.228H117.551M78.3674 489.751V534.273M78.3674 489.751H108.646M78.3674 489.751L117.551 489.75M78.3674 489.751L76.5863 489.75M78.3674 534.273V578.796M78.3674 534.273H117.551M78.3674 578.796V623.319M78.3674 578.796H117.551M78.3674 623.319V667.841M78.3674 623.319H117.551M78.3674 667.841V712.364M78.3674 667.841H117.551M78.3674 712.364V756.887M78.3674 712.364H108.646M78.3674 712.364L117.551 712.364M78.3674 712.364L76.5863 712.364M78.3674 756.887V801.41M78.3674 756.887H108.646M78.3674 756.887L117.551 756.887M78.3674 756.887L76.5863 756.887M78.3674 801.41V845.933M78.3674 801.41H108.646M78.3674 801.41L117.551 801.41M78.3674 801.41L76.5863 801.41M78.3674 845.933V890.455M78.3674 845.933H117.551M78.3674 890.455V934.978M78.3674 890.455H117.551M78.3674 934.978V979.501M78.3674 934.978H108.646M78.3674 934.978L117.551 934.978M78.3674 934.978L76.5863 934.978M78.3674 979.501V1022M78.3674 979.501H108.646M78.3674 979.501L117.551 979.501M78.3674 979.501L76.5863 979.501M78.3674 1022L108.646 1022M78.3674 1022H117.551M117.551 0V44.5227M117.551 0H156.735M117.551 0H76.5863M117.551 44.5227V89.0456M117.551 44.5227H156.735M117.551 89.0456V133.568M117.551 89.0456H156.735M117.551 133.568V178.091M117.551 133.568H156.735M117.551 178.091V222.614M117.551 178.091H156.735M117.551 222.614V267.137M117.551 222.614H156.735M117.551 267.137V311.659M117.551 267.137H156.735M117.551 311.659V356.182M117.551 311.659H156.735M117.551 356.182V400.705M117.551 356.182H156.735M117.551 400.705V445.228M117.551 400.705H156.735M117.551 445.228V489.75M117.551 445.228H156.735M117.551 489.75V534.273M117.551 489.75H156.735M117.551 534.273V578.796M117.551 534.273H156.735M117.551 578.796V623.319M117.551 578.796H156.735M117.551 623.319V667.841M117.551 623.319H156.735M117.551 667.841V712.364M117.551 667.841H156.735M117.551 712.364L117.551 756.887M117.551 712.364H156.735M117.551 756.887V801.41M117.551 756.887H156.735M117.551 801.41V845.933M117.551 801.41H156.735M117.551 845.933V890.455M117.551 845.933H156.735M117.551 890.455V934.978M117.551 890.455H156.735M117.551 934.978V979.501M117.551 934.978H156.735M117.551 979.501V1022M117.551 979.501H156.735M117.551 1022H156.735M156.735 0V44.5227M156.735 0H195.918M156.735 44.5227V89.0456M156.735 44.5227H195.918M156.735 89.0456V133.568M156.735 89.0456H195.918M156.735 133.568V178.091M156.735 133.568H195.918M156.735 178.091V222.614M156.735 178.091H195.918M156.735 222.614V267.137M156.735 222.614H195.918M156.735 267.137V311.659M156.735 267.137H195.918M156.735 311.659V356.182M156.735 311.659H195.918M156.735 356.182V400.705M156.735 356.182H195.918M156.735 400.705V445.228M156.735 400.705H195.918M156.735 445.228V489.75M156.735 445.228H195.918M156.735 489.75V534.273M156.735 489.75H195.918M156.735 534.273L156.735 578.796M156.735 534.273H195.918M156.735 578.796V623.319M156.735 578.796H195.918M156.735 623.319V667.841M156.735 623.319H195.918M156.735 667.841V712.364M156.735 667.841H195.918M156.735 712.364V756.887M156.735 712.364H195.918M156.735 756.887V801.41M156.735 756.887H195.918M156.735 801.41V845.933M156.735 801.41H195.918M156.735 845.933V890.455M156.735 845.933H195.918M156.735 890.455V934.978M156.735 890.455H195.918M156.735 934.978V979.501M156.735 934.978H195.918M156.735 979.501V1022M156.735 979.501H195.918M156.735 1022H195.918M195.918 0V44.5227M195.918 0H235.102M195.918 44.5227V89.0456M195.918 44.5227H235.102M195.918 89.0456V133.568M195.918 89.0456H235.102M195.918 133.568V178.091M195.918 133.568H235.102M195.918 178.091V222.614M195.918 178.091H235.102M195.918 222.614V267.137M195.918 222.614H235.102M195.918 267.137V311.659M195.918 267.137H235.102M195.918 311.659V356.182M195.918 311.659H235.102M195.918 356.182V400.705M195.918 356.182H235.102M195.918 400.705V445.228M195.918 400.705H235.102M195.918 445.228V489.75M195.918 445.228H235.102M195.918 489.75V534.273M195.918 489.75H235.102M195.918 534.273V578.796M195.918 534.273H235.102M195.918 578.796V623.319M195.918 578.796H235.102M195.918 623.319V667.841M195.918 623.319H235.102M195.918 667.841V712.364M195.918 667.841H235.102M195.918 712.364V756.887M195.918 712.364H235.102M195.918 756.887V801.41M195.918 756.887H235.102M195.918 801.41V845.933M195.918 801.41H235.102M195.918 845.933V890.455M195.918 845.933H235.102M195.918 890.455V934.978M195.918 890.455H235.102M195.918 934.978V979.501M195.918 934.978H235.102M195.918 979.501V1022M195.918 979.501H235.102M195.918 1022H235.102M235.102 0V44.5227M235.102 0H274.286M235.102 44.5227V89.0456M235.102 44.5227L274.286 44.5228M235.102 89.0456L235.102 133.568M235.102 89.0456L274.286 89.0456M235.102 133.568V178.091M235.102 133.568L274.286 133.568M235.102 178.091V222.614M235.102 178.091L274.286 178.091M235.102 222.614V267.137M235.102 222.614L274.286 222.614M235.102 267.137V311.659M235.102 267.137L274.286 267.137M235.102 311.659V356.182M235.102 311.659H274.286M235.102 356.182V400.705M235.102 356.182H274.286M235.102 400.705V445.228M235.102 400.705H274.286M235.102 445.228V489.75M235.102 445.228H274.286M235.102 489.75V534.273M235.102 489.75H274.286M235.102 534.273V578.796M235.102 534.273H274.286M235.102 578.796V623.319M235.102 578.796H274.286M235.102 623.319V667.841M235.102 623.319H274.286M235.102 667.841V712.364M235.102 667.841H274.286M235.102 712.364V756.887M235.102 712.364H274.286M235.102 756.887V801.41M235.102 756.887H274.286M235.102 801.41V845.933M235.102 801.41H274.286M235.102 845.933V890.455M235.102 845.933H274.286M235.102 890.455V934.978M235.102 890.455H274.286M235.102 934.978V979.501M235.102 934.978H274.286M235.102 979.501V1022M235.102 979.501H274.286M235.102 1022H274.286M274.286 0V44.5228M274.286 0H313.469M274.286 44.5228V89.0456M274.286 44.5228H313.469M274.286 89.0456L274.286 133.568M274.286 89.0456H313.469M274.286 133.568V178.091M274.286 133.568H313.469M274.286 178.091V222.614M274.286 178.091H313.469M274.286 222.614V267.137M274.286 222.614H313.469M274.286 267.137V311.659M274.286 267.137H313.469M274.286 311.659V356.182M274.286 311.659H313.469M274.286 356.182V400.705M274.286 356.182H313.469M274.286 400.705V445.228M274.286 400.705H313.469M274.286 445.228V489.75M274.286 445.228H313.469M274.286 489.75V534.273M274.286 489.75H313.469M274.286 534.273V578.796M274.286 534.273H313.469M274.286 578.796V623.319M274.286 578.796H313.469M274.286 623.319V667.841M274.286 623.319H313.469M274.286 667.841V712.364M274.286 667.841H313.469M274.286 712.364V756.887M274.286 712.364H313.469M274.286 756.887V801.41M274.286 756.887H313.469M274.286 801.41V845.933M274.286 801.41H313.469M274.286 845.933V890.455M274.286 845.933H313.469M274.286 890.455V934.978M274.286 890.455H313.469M274.286 934.978V979.501M274.286 934.978H313.469M274.286 979.501V1022M274.286 979.501H313.469M274.286 1022H313.469M313.469 0V44.5228M313.469 0H352.653M313.469 44.5228V89.0456M313.469 44.5228H352.653M313.469 89.0456V133.568M313.469 89.0456H352.653M313.469 133.568V178.091M313.469 133.568H352.653M313.469 178.091V222.614M313.469 178.091H352.653M313.469 222.614V267.137M313.469 222.614H352.653M313.469 267.137V311.659M313.469 267.137H352.653M313.469 311.659V356.182M313.469 311.659H352.653M313.469 356.182V400.705M313.469 356.182H352.653M313.469 400.705V445.228M313.469 400.705H352.653M313.469 445.228V489.75M313.469 445.228H352.653M313.469 489.75V534.273M313.469 489.75H352.653M313.469 534.273V578.796M313.469 534.273H352.653M313.469 578.796V623.319M313.469 578.796H352.653M313.469 623.319V667.841M313.469 623.319H352.653M313.469 667.841V712.364M313.469 667.841H352.653M313.469 712.364V756.887M313.469 712.364H352.653M313.469 756.887V801.41M313.469 756.887H352.653M313.469 801.41V845.933M313.469 801.41H352.653M313.469 845.933V890.455M313.469 845.933H352.653M313.469 890.455V934.978M313.469 890.455H352.653M313.469 934.978V979.501M313.469 934.978H352.653M313.469 979.501V1022M313.469 979.501H352.653M313.469 1022H352.653M352.653 0V44.5228M352.653 0H391.837M352.653 44.5228V89.0456M352.653 44.5228H391.837M352.653 89.0456L352.653 133.568M352.653 89.0456H391.837M352.653 133.568V178.091M352.653 133.568H391.837M352.653 178.091V222.614M352.653 178.091H391.837M352.653 222.614V267.137M352.653 222.614H391.837M352.653 267.137V311.659M352.653 267.137H391.837M352.653 311.659V356.182M352.653 311.659H391.837M352.653 356.182V400.705M352.653 356.182H391.837M352.653 400.705V445.228M352.653 400.705H391.837M352.653 445.228V489.75M352.653 445.228H391.837M352.653 489.75V534.273M352.653 489.75H391.837M352.653 534.273V578.796M352.653 534.273H391.837M352.653 578.796V623.319M352.653 578.796H391.837M352.653 623.319V667.841M352.653 623.319H391.837M352.653 667.841V712.364M352.653 667.841H391.837M352.653 712.364V756.887M352.653 712.364H391.837M352.653 756.887V801.41M352.653 756.887H391.837M352.653 801.41V845.933M352.653 801.41H391.837M352.653 845.933V890.455M352.653 845.933H391.837M352.653 890.455V934.978M352.653 890.455H391.837M352.653 934.978V979.501M352.653 934.978H391.837M352.653 979.501V1022M352.653 979.501H391.837M352.653 1022H391.837M391.837 0V44.5228M391.837 0H431.02M391.837 44.5228V89.0456M391.837 44.5228H431.02M391.837 89.0456V133.568M391.837 89.0456H431.02M391.837 133.568V178.091M391.837 133.568H431.02M391.837 178.091V222.614M391.837 178.091H431.02M391.837 222.614V267.137M391.837 222.614H431.02M391.837 267.137V311.659M391.837 267.137H431.02M391.837 311.659V356.182M391.837 311.659L431.02 311.659M391.837 356.182V400.705M391.837 356.182L431.02 356.182M391.837 400.705V445.228M391.837 400.705L431.02 400.705M391.837 445.228V489.75M391.837 445.228H431.02M391.837 489.75V534.273M391.837 489.75L431.02 489.751M391.837 534.273V578.796M391.837 534.273H431.02M391.837 578.796V623.319M391.837 578.796H431.02M391.837 623.319V667.841M391.837 623.319H431.02M391.837 667.841V712.364M391.837 667.841H431.02M391.837 712.364V756.887M391.837 712.364L431.02 712.364M391.837 756.887V801.41M391.837 756.887L431.02 756.887M391.837 801.41V845.933M391.837 801.41L431.02 801.41M391.837 845.933V890.455M391.837 845.933H431.02M391.837 890.455V934.978M391.837 890.455H431.02M391.837 934.978V979.501M391.837 934.978L431.02 934.978M391.837 979.501V1022M391.837 979.501L431.02 979.501M391.837 1022H431.02M431.02 0V44.5228M431.02 0H470.204M431.02 44.5228V89.0456M431.02 44.5228H470.204M431.02 89.0456V133.568M431.02 89.0456H470.204M431.02 133.568V178.091M431.02 133.568H470.204M431.02 178.091V222.614M431.02 178.091H470.204M431.02 222.614V267.137M431.02 222.614H470.204M431.02 267.137V311.659M431.02 267.137H470.204M431.02 311.659V356.182M431.02 311.659H470.204M431.02 356.182V400.705M431.02 356.182H470.204M431.02 400.705V445.228M431.02 400.705H470.204M431.02 445.228V489.751M431.02 445.228H470.204M431.02 489.751V534.273M431.02 489.751H470.204M431.02 534.273V578.796M431.02 534.273H470.204M431.02 578.796V623.319M431.02 578.796H470.204M431.02 623.319V667.841M431.02 623.319H470.204M431.02 667.841V712.364M431.02 667.841H470.204M431.02 712.364V756.887M431.02 712.364H470.204M431.02 756.887V801.41M431.02 756.887H470.204M431.02 801.41V845.933M431.02 801.41H470.204M431.02 845.933V890.455M431.02 845.933H470.204M431.02 890.455V934.978M431.02 890.455H470.204M431.02 934.978V979.501M431.02 934.978H470.204M431.02 979.501V1022M431.02 979.501H470.204M431.02 1022H470.204M470.204 0V44.5228M470.204 0H509.388M470.204 44.5228V89.0456M470.204 44.5228H509.388M470.204 89.0456V133.568M470.204 89.0456H509.388M470.204 133.568V178.091M470.204 133.568H509.388M470.204 178.091V222.614M470.204 178.091H509.388M470.204 222.614V267.137M470.204 222.614H509.388M470.204 267.137V311.659M470.204 267.137H509.388M470.204 311.659V356.182M470.204 311.659H509.388M470.204 356.182V400.705M470.204 356.182H509.388M470.204 400.705V445.228M470.204 400.705H509.388M470.204 445.228V489.751M470.204 445.228H509.388M470.204 489.751V534.273M470.204 489.751H509.388M470.204 534.273V578.796M470.204 534.273H509.388M470.204 578.796V623.319M470.204 578.796H509.388M470.204 623.319V667.841M470.204 623.319H509.388M470.204 667.841V712.364M470.204 667.841H509.388M470.204 712.364V756.887M470.204 712.364H509.388M470.204 756.887V801.41M470.204 756.887H509.388M470.204 801.41V845.933M470.204 801.41H509.388M470.204 845.933V890.455M470.204 845.933H509.388M470.204 890.455V934.978M470.204 890.455H509.388M470.204 934.978V979.501M470.204 934.978H509.388M470.204 979.501V1022M470.204 979.501H509.388M470.204 1022H509.388M509.388 0V44.5228M509.388 0H548.571M509.388 44.5228V89.0456M509.388 44.5228H548.571M509.388 89.0456V133.568M509.388 89.0456H548.571M509.388 133.568V178.091M509.388 133.568H548.571M509.388 178.091V222.614M509.388 178.091H548.571M509.388 222.614V267.137M509.388 222.614H548.571M509.388 267.137V311.659M509.388 267.137H548.571M509.388 311.659V356.182M509.388 311.659H548.571M509.388 356.182V400.705M509.388 356.182H548.571M509.388 400.705V445.228M509.388 400.705H548.571M509.388 445.228V489.751M509.388 445.228H548.571M509.388 489.751V534.273M509.388 489.751H548.571M509.388 534.273V578.796M509.388 534.273H548.571M509.388 578.796V623.319M509.388 578.796H548.571M509.388 623.319V667.841M509.388 623.319H548.571M509.388 667.841V712.364M509.388 667.841H548.571M509.388 712.364V756.887M509.388 712.364H548.571M509.388 756.887V801.41M509.388 756.887H548.571M509.388 801.41V845.933M509.388 801.41H548.571M509.388 845.933V890.455M509.388 845.933H548.571M509.388 890.455V934.978M509.388 890.455H548.571M509.388 934.978V979.501M509.388 934.978H548.571M509.388 979.501V1022M509.388 979.501H548.571M509.388 1022H548.571M548.571 0V44.5228M548.571 0L587.755 7.09741e-05M548.571 44.5228V89.0456M548.571 44.5228H587.755M548.571 89.0456V133.568M548.571 89.0456L587.755 89.0457M548.571 133.568V178.091M548.571 133.568L587.755 133.568M548.571 178.091V222.614M548.571 178.091L587.755 178.091M548.571 222.614V267.137M548.571 222.614L587.755 222.614M548.571 267.137V311.659M548.571 267.137L587.755 267.137M548.571 311.659V356.182M548.571 311.659H587.755M548.571 356.182V400.705M548.571 356.182H587.755M548.571 400.705V445.228M548.571 400.705H587.755M548.571 445.228V489.751M548.571 445.228H587.755M548.571 489.751V534.273M548.571 489.751H587.755M548.571 534.273V578.796M548.571 534.273H587.755M548.571 578.796V623.319M548.571 578.796H587.755M548.571 623.319V667.841M548.571 623.319H587.755M548.571 667.841V712.364M548.571 667.841H587.755M548.571 712.364V756.887M548.571 712.364H587.755M548.571 756.887V801.41M548.571 756.887H587.755M548.571 801.41V845.933M548.571 801.41H587.755M548.571 845.933V890.455M548.571 845.933H587.755M548.571 890.455V934.978M548.571 890.455H587.755M548.571 934.978V979.501M548.571 934.978H587.755M548.571 979.501V1022M548.571 979.501H587.755M548.571 1022H587.755M587.755 7.09741e-05V44.5228M587.755 7.09741e-05H626.939M587.755 44.5228V89.0457M587.755 44.5228H626.939M587.755 89.0457V133.568M587.755 89.0457H626.939M587.755 133.568V178.091M587.755 133.568H626.939M587.755 178.091V222.614M587.755 178.091H626.939M587.755 222.614V267.137M587.755 222.614H626.939M587.755 267.137V311.659M587.755 267.137H626.939M587.755 311.659V356.182M587.755 311.659H626.939M587.755 356.182V400.705M587.755 356.182H626.939M587.755 400.705V445.228M587.755 400.705H626.939M587.755 445.228V489.751M587.755 445.228H626.939M587.755 489.751V534.273M587.755 489.751H626.939M587.755 534.273V578.796M587.755 534.273H626.939M587.755 578.796V623.319M587.755 578.796H626.939M587.755 623.319V667.841M587.755 623.319H626.939M587.755 667.841V712.364M587.755 667.841H626.939M587.755 712.364V756.887M587.755 712.364H626.939M587.755 756.887V801.41M587.755 756.887H626.939M587.755 801.41V845.933M587.755 801.41H626.939M587.755 845.933V890.455M587.755 845.933H626.939M587.755 890.455V934.978M587.755 890.455H626.939M587.755 934.978V979.501M587.755 934.978H626.939M587.755 979.501V1022M587.755 979.501H626.939M587.755 1022H626.939M626.939 7.09741e-05V44.5228M626.939 7.09741e-05H666.123M626.939 44.5228V89.0457M626.939 44.5228H666.123M626.939 89.0457V133.568M626.939 89.0457H666.123M626.939 133.568V178.091M626.939 133.568H666.123M626.939 178.091V222.614M626.939 178.091H666.123M626.939 222.614V267.137M626.939 222.614H666.123M626.939 267.137V311.659M626.939 267.137H666.123M626.939 311.659V356.182M626.939 311.659H666.123M626.939 356.182V400.705M626.939 356.182H666.123M626.939 400.705V445.228M626.939 400.705H666.123M626.939 445.228V489.751M626.939 445.228H666.123M626.939 489.751V534.273M626.939 489.751H666.123M626.939 534.273V578.796M626.939 534.273H666.123M626.939 578.796V623.319M626.939 578.796H666.123M626.939 623.319V667.841M626.939 623.319H666.123M626.939 667.841V712.364M626.939 667.841H666.123M626.939 712.364V756.887M626.939 712.364H666.123M626.939 756.887V801.41M626.939 756.887H666.123M626.939 801.41V845.933M626.939 801.41H666.123M626.939 845.933V890.455M626.939 845.933H666.123M626.939 890.455V934.978M626.939 890.455H666.123M626.939 934.978V979.501M626.939 934.978H666.123M626.939 979.501V1022M626.939 979.501H666.123M626.939 1022H666.123M666.123 7.09741e-05V44.5228M666.123 7.09741e-05H705.306M666.123 44.5228V89.0457M666.123 44.5228H705.306M666.123 89.0457V133.568M666.123 89.0457H705.306M666.123 133.568V178.091M666.123 133.568H705.306M666.123 178.091V222.614M666.123 178.091H705.306M666.123 222.614V267.137M666.123 222.614H705.306M666.123 267.137V311.659M666.123 267.137H705.306M666.123 311.659V356.182M666.123 311.659H705.306M666.123 356.182V400.705M666.123 356.182H705.306M666.123 400.705V445.228M666.123 400.705H705.306M666.123 445.228V489.751M666.123 445.228H705.306M666.123 489.751V534.273M666.123 489.751H705.306M666.123 534.273V578.796M666.123 534.273H705.306M666.123 578.796V623.319M666.123 578.796H705.306M666.123 623.319V667.841M666.123 623.319H705.306M666.123 667.841V712.364M666.123 667.841H705.306M666.123 712.364V756.887M666.123 712.364H705.306M666.123 756.887V801.41M666.123 756.887H705.306M666.123 801.41V845.933M666.123 801.41H705.306M666.123 845.933V890.455M666.123 845.933H705.306M666.123 890.455V934.978M666.123 890.455H705.306M666.123 934.978V979.501M666.123 934.978H705.306M666.123 979.501V1022M666.123 979.501H705.306M666.123 1022H705.306M705.306 7.09741e-05V44.5228M705.306 7.09741e-05H735.585M705.306 44.5228V89.0457M705.306 44.5228H735.585M705.306 44.5228L744.49 44.5227M705.306 44.5228L703.525 44.5227M705.306 89.0457V133.568M705.306 89.0457H735.585M705.306 89.0457L744.49 89.0456M705.306 89.0457L703.525 89.0456M705.306 133.568V178.091M705.306 133.568H735.585M705.306 133.568L744.49 133.568M705.306 133.568L703.525 133.568M705.306 178.091V222.614M705.306 178.091H735.585M705.306 178.091L744.49 178.091M705.306 178.091L703.525 178.091M705.306 222.614V267.137M705.306 222.614H735.585M705.306 222.614L744.49 222.614M705.306 222.614L703.525 222.614M705.306 267.137V311.659M705.306 267.137H735.585M705.306 267.137L744.49 267.137M705.306 267.137L703.525 267.137M705.306 311.659V356.182M705.306 311.659H735.585M705.306 311.659L744.49 311.659M705.306 311.659L703.525 311.659M705.306 356.182V400.705M705.306 356.182H735.585M705.306 356.182L744.49 356.182M705.306 356.182L703.525 356.182M705.306 400.705V445.228M705.306 400.705H735.585M705.306 400.705L744.49 400.705M705.306 400.705L703.525 400.705M705.306 445.228V489.751M705.306 445.228H744.49M705.306 489.751V534.273M705.306 489.751H735.585M705.306 489.751L744.49 489.75M705.306 489.751L703.525 489.75M705.306 534.273V578.796M705.306 534.273H744.49M705.306 578.796V623.319M705.306 578.796H744.49M705.306 623.319V667.841M705.306 623.319H744.49M705.306 667.841V712.364M705.306 667.841H744.49M705.306 712.364V756.887M705.306 712.364H735.585M705.306 712.364L744.49 712.364M705.306 712.364L703.525 712.364M705.306 756.887V801.41M705.306 756.887H735.585M705.306 756.887L744.49 756.887M705.306 756.887L703.525 756.887M705.306 801.41V845.933M705.306 801.41H735.585M705.306 801.41L744.49 801.41M705.306 801.41L703.525 801.41M705.306 845.933V890.455M705.306 845.933H744.49M705.306 890.455V934.978M705.306 890.455H744.49M705.306 934.978V979.501M705.306 934.978H735.585M705.306 934.978L744.49 934.978M705.306 934.978L703.525 934.978M705.306 979.501V1022M705.306 979.501H735.585M705.306 979.501L744.49 979.501M705.306 979.501L703.525 979.501M705.306 1022L735.585 1022M705.306 1022H744.49M744.49 0V44.5227M744.49 0H783.674M744.49 0H703.525M744.49 44.5227L744.49 89.0456M744.49 44.5227H783.674M744.49 89.0456V133.568M744.49 89.0456H783.674M744.49 133.568V178.091M744.49 133.568H783.674M744.49 178.091V222.614M744.49 178.091H783.674M744.49 222.614V267.137M744.49 222.614H783.674M744.49 267.137V311.659M744.49 267.137H783.674M744.49 311.659V356.182M744.49 311.659H783.674M744.49 356.182V400.705M744.49 356.182H783.674M744.49 400.705V445.228M744.49 400.705H783.674M744.49 445.228V489.75M744.49 445.228H783.674M744.49 489.75V534.273M744.49 489.75H783.674M744.49 534.273V578.796M744.49 534.273H783.674M744.49 578.796V623.319M744.49 578.796H783.674M744.49 623.319V667.841M744.49 623.319H783.674M744.49 667.841V712.364M744.49 667.841H783.674M744.49 712.364V756.887M744.49 712.364H783.674M744.49 756.887V801.41M744.49 756.887H783.674M744.49 801.41V845.933M744.49 801.41H783.674M744.49 845.933V890.455M744.49 845.933H783.674M744.49 890.455V934.978M744.49 890.455H783.674M744.49 934.978V979.501M744.49 934.978H783.674M744.49 979.501V1022M744.49 979.501H783.674M744.49 1022H783.674M783.674 0V44.5227M783.674 0H822.857M783.674 44.5227V89.0456M783.674 44.5227H822.857M783.674 89.0456V133.568M783.674 89.0456H822.857M783.674 133.568V178.091M783.674 133.568H822.857M783.674 178.091V222.614M783.674 178.091H822.857M783.674 222.614V267.137M783.674 222.614H822.857M783.674 267.137V311.659M783.674 267.137H822.857M783.674 311.659V356.182M783.674 311.659H822.857M783.674 356.182V400.705M783.674 356.182H822.857M783.674 400.705V445.228M783.674 400.705H822.857M783.674 445.228V489.75M783.674 445.228H822.857M783.674 489.75V534.273M783.674 489.75H822.857M783.674 534.273V578.796M783.674 534.273H822.857M783.674 578.796V623.319M783.674 578.796H822.857M783.674 623.319V667.841M783.674 623.319H822.857M783.674 667.841V712.364M783.674 667.841H822.857M783.674 712.364V756.887M783.674 712.364H822.857M783.674 756.887V801.41M783.674 756.887H822.857M783.674 801.41V845.933M783.674 801.41H822.857M783.674 845.933V890.455M783.674 845.933H822.857M783.674 890.455V934.978M783.674 890.455H822.857M783.674 934.978V979.501M783.674 934.978H822.857M783.674 979.501V1022M783.674 979.501H822.857M783.674 1022H822.857M822.857 0V44.5227M822.857 0H862.041M822.857 44.5227V89.0456M822.857 44.5227H862.041M822.857 89.0456V133.568M822.857 89.0456H862.041M822.857 133.568V178.091M822.857 133.568H862.041M822.857 178.091V222.614M822.857 178.091H862.041M822.857 222.614V267.137M822.857 222.614H862.041M822.857 267.137V311.659M822.857 267.137H862.041M822.857 311.659V356.182M822.857 311.659H862.041M822.857 356.182V400.705M822.857 356.182H862.041M822.857 400.705V445.228M822.857 400.705H862.041M822.857 445.228V489.75M822.857 445.228H862.041M822.857 489.75V534.273M822.857 489.75H862.041M822.857 534.273V578.796M822.857 534.273H862.041M822.857 578.796V623.319M822.857 578.796H862.041M822.857 623.319V667.841M822.857 623.319H862.041M822.857 667.841V712.364M822.857 667.841H862.041M822.857 712.364V756.887M822.857 712.364H862.041M822.857 756.887V801.41M822.857 756.887H862.041M822.857 801.41V845.933M822.857 801.41H862.041M822.857 845.933V890.455M822.857 845.933H862.041M822.857 890.455V934.978M822.857 890.455H862.041M822.857 934.978V979.501M822.857 934.978H862.041M822.857 979.501V1022M822.857 979.501H862.041M822.857 1022H862.041M862.041 0V44.5227M862.041 0H901.225M862.041 44.5227V89.0456M862.041 44.5227L901.225 44.5228M862.041 89.0456V133.568M862.041 89.0456L901.225 89.0456M862.041 133.568V178.091M862.041 133.568L901.225 133.568M862.041 178.091V222.614M862.041 178.091L901.225 178.091M862.041 222.614V267.137M862.041 222.614L901.225 222.614M862.041 267.137V311.659M862.041 267.137L901.225 267.137M862.041 311.659V356.182M862.041 311.659H901.225M862.041 356.182V400.705M862.041 356.182H901.225M862.041 400.705V445.228M862.041 400.705H901.225M862.041 445.228V489.75M862.041 445.228H901.225M862.041 489.75V534.273M862.041 489.75H901.225M862.041 534.273V578.796M862.041 534.273H901.225M862.041 578.796V623.319M862.041 578.796H901.225M862.041 623.319V667.841M862.041 623.319H901.225M862.041 667.841V712.364M862.041 667.841H901.225M862.041 712.364V756.887M862.041 712.364H901.225M862.041 756.887V801.41M862.041 756.887H901.225M862.041 801.41V845.933M862.041 801.41H901.225M862.041 845.933V890.455M862.041 845.933H901.225M862.041 890.455V934.978M862.041 890.455H901.225M862.041 934.978V979.501M862.041 934.978H901.225M862.041 979.501V1022M862.041 979.501H901.225M862.041 1022H901.225M901.225 0V44.5228M901.225 0H940.408M901.225 44.5228V89.0456M901.225 44.5228H940.408M901.225 89.0456V133.568M901.225 89.0456H940.408M901.225 133.568V178.091M901.225 133.568H940.408M901.225 178.091V222.614M901.225 178.091H940.408M901.225 222.614V267.137M901.225 222.614H940.408M901.225 267.137V311.659M901.225 267.137H940.408M901.225 311.659V356.182M901.225 311.659H940.408M901.225 356.182V400.705M901.225 356.182H940.408M901.225 400.705V445.228M901.225 400.705H940.408M901.225 445.228V489.75M901.225 445.228H940.408M901.225 489.75V534.273M901.225 489.75H940.408M901.225 534.273V578.796M901.225 534.273H940.408M901.225 578.796V623.319M901.225 578.796H940.408M901.225 623.319V667.841M901.225 623.319H940.408M901.225 667.841V712.364M901.225 667.841H940.408M901.225 712.364V756.887M901.225 712.364H940.408M901.225 756.887V801.41M901.225 756.887H940.408M901.225 801.41V845.933M901.225 801.41H940.408M901.225 845.933V890.455M901.225 845.933H940.408M901.225 890.455V934.978M901.225 890.455H940.408M901.225 934.978V979.501M901.225 934.978H940.408M901.225 979.501V1022M901.225 979.501H940.408M901.225 1022H940.408M940.408 0V44.5228M940.408 0H979.592M940.408 44.5228V89.0456M940.408 44.5228H979.592M940.408 89.0456V133.568M940.408 89.0456H979.592M940.408 133.568V178.091M940.408 133.568H979.592M940.408 178.091V222.614M940.408 178.091H979.592M940.408 222.614V267.137M940.408 222.614H979.592M940.408 267.137V311.659M940.408 267.137H979.592M940.408 311.659V356.182M940.408 311.659H979.592M940.408 356.182V400.705M940.408 356.182H979.592M940.408 400.705V445.228M940.408 400.705H979.592M940.408 445.228V489.75M940.408 445.228H979.592M940.408 489.75V534.273M940.408 489.75H979.592M940.408 534.273V578.796M940.408 534.273H979.592M940.408 578.796V623.319M940.408 578.796H979.592M940.408 623.319V667.841M940.408 623.319H979.592M940.408 667.841V712.364M940.408 667.841H979.592M940.408 712.364V756.887M940.408 712.364H979.592M940.408 756.887V801.41M940.408 756.887H979.592M940.408 801.41V845.933M940.408 801.41H979.592M940.408 845.933V890.455M940.408 845.933H979.592M940.408 890.455V934.978M940.408 890.455H979.592M940.408 934.978V979.501M940.408 934.978H979.592M940.408 979.501V1022M940.408 979.501H979.592M940.408 1022H979.592M979.592 0V44.5228M979.592 0H1018.78M979.592 44.5228V89.0456M979.592 44.5228H1018.78M979.592 89.0456V133.568M979.592 89.0456H1018.78M979.592 133.568V178.091M979.592 133.568H1018.78M979.592 178.091V222.614M979.592 178.091H1018.78M979.592 222.614V267.137M979.592 222.614H1018.78M979.592 267.137V311.659M979.592 267.137H1018.78M979.592 311.659V356.182M979.592 311.659H1018.78M979.592 356.182V400.705M979.592 356.182H1018.78M979.592 400.705V445.228M979.592 400.705H1018.78M979.592 445.228V489.75M979.592 445.228H1018.78M979.592 489.75V534.273M979.592 489.75H1018.78M979.592 534.273V578.796M979.592 534.273H1018.78M979.592 578.796V623.319M979.592 578.796H1018.78M979.592 623.319V667.841M979.592 623.319H1018.78M979.592 667.841V712.364M979.592 667.841H1018.78M979.592 712.364V756.887M979.592 712.364H1018.78M979.592 756.887V801.41M979.592 756.887H1018.78M979.592 801.41V845.933M979.592 801.41H1018.78M979.592 845.933V890.455M979.592 845.933H1018.78M979.592 890.455V934.978M979.592 890.455H1018.78M979.592 934.978V979.501M979.592 934.978H1018.78M979.592 979.501V1022M979.592 979.501H1018.78M979.592 1022H1018.78M1018.78 0V44.5228M1018.78 0H1057.96M1018.78 44.5228V89.0456M1018.78 44.5228H1057.96M1018.78 89.0456V133.568M1018.78 89.0456H1057.96M1018.78 133.568V178.091M1018.78 133.568H1057.96M1018.78 178.091V222.614M1018.78 178.091H1057.96M1018.78 222.614V267.137M1018.78 222.614H1057.96M1018.78 267.137V311.659M1018.78 267.137H1057.96M1018.78 311.659V356.182M1018.78 311.659L1057.96 311.659M1018.78 356.182V400.705M1018.78 356.182L1057.96 356.182M1018.78 400.705V445.228M1018.78 400.705L1057.96 400.705M1018.78 445.228V489.75M1018.78 445.228H1057.96M1018.78 489.75V534.273M1018.78 489.75L1057.96 489.751M1018.78 534.273V578.796M1018.78 534.273H1057.96M1018.78 578.796V623.319M1018.78 578.796H1057.96M1018.78 623.319V667.841M1018.78 623.319H1057.96M1018.78 667.841V712.364M1018.78 667.841H1057.96M1018.78 712.364V756.887M1018.78 712.364L1057.96 712.364M1018.78 756.887V801.41M1018.78 756.887L1057.96 756.887M1018.78 801.41V845.933M1018.78 801.41L1057.96 801.41M1018.78 845.933V890.455M1018.78 845.933H1057.96M1018.78 890.455V934.978M1018.78 890.455H1057.96M1018.78 934.978V979.501M1018.78 934.978L1057.96 934.978M1018.78 979.501V1022M1018.78 979.501L1057.96 979.501M1018.78 1022H1057.96M1057.96 0V44.5228M1057.96 0H1097.14M1057.96 44.5228V89.0456M1057.96 44.5228H1097.14M1057.96 89.0456V133.568M1057.96 89.0456H1097.14M1057.96 133.568V178.091M1057.96 133.568H1097.14M1057.96 178.091V222.614M1057.96 178.091H1097.14M1057.96 222.614V267.137M1057.96 222.614H1097.14M1057.96 267.137V311.659M1057.96 267.137H1097.14M1057.96 311.659V356.182M1057.96 311.659H1097.14M1057.96 356.182V400.705M1057.96 356.182H1097.14M1057.96 400.705V445.228M1057.96 400.705H1097.14M1057.96 445.228V489.751M1057.96 445.228H1097.14M1057.96 489.751V534.273M1057.96 489.751H1097.14M1057.96 534.273V578.796M1057.96 534.273H1097.14M1057.96 578.796V623.319M1057.96 578.796H1097.14M1057.96 623.319V667.841M1057.96 623.319H1097.14M1057.96 667.841V712.364M1057.96 667.841H1097.14M1057.96 712.364V756.887M1057.96 712.364H1097.14M1057.96 756.887V801.41M1057.96 756.887H1097.14M1057.96 801.41V845.933M1057.96 801.41H1097.14M1057.96 845.933V890.455M1057.96 845.933H1097.14M1057.96 890.455V934.978M1057.96 890.455H1097.14M1057.96 934.978V979.501M1057.96 934.978H1097.14M1057.96 979.501V1022M1057.96 979.501H1097.14M1057.96 1022H1097.14M1097.14 0V44.5228M1097.14 0H1136.33M1097.14 44.5228V89.0456M1097.14 44.5228H1136.33M1097.14 89.0456V133.568M1097.14 89.0456H1136.33M1097.14 133.568V178.091M1097.14 133.568H1136.33M1097.14 178.091V222.614M1097.14 178.091H1136.33M1097.14 222.614V267.137M1097.14 222.614H1136.33M1097.14 267.137V311.659M1097.14 267.137H1136.33M1097.14 311.659V356.182M1097.14 311.659H1136.33M1097.14 356.182V400.705M1097.14 356.182H1136.33M1097.14 400.705V445.228M1097.14 400.705H1136.33M1097.14 445.228V489.751M1097.14 445.228H1136.33M1097.14 489.751V534.273M1097.14 489.751H1136.33M1097.14 534.273V578.796M1097.14 534.273H1136.33M1097.14 578.796V623.319M1097.14 578.796H1136.33M1097.14 623.319V667.841M1097.14 623.319H1136.33M1097.14 667.841V712.364M1097.14 667.841H1136.33M1097.14 712.364V756.887M1097.14 712.364H1136.33M1097.14 756.887V801.41M1097.14 756.887H1136.33M1097.14 801.41V845.933M1097.14 801.41H1136.33M1097.14 845.933V890.455M1097.14 845.933H1136.33M1097.14 890.455V934.978M1097.14 890.455H1136.33M1097.14 934.978V979.501M1097.14 934.978H1136.33M1097.14 979.501V1022M1097.14 979.501H1136.33M1097.14 1022H1136.33M1136.33 0V44.5228M1136.33 0H1175.51M1136.33 44.5228V89.0456M1136.33 44.5228H1175.51M1136.33 89.0456V133.568M1136.33 89.0456H1175.51M1136.33 133.568V178.091M1136.33 133.568H1175.51M1136.33 178.091V222.614M1136.33 178.091H1175.51M1136.33 222.614V267.137M1136.33 222.614H1175.51M1136.33 267.137V311.659M1136.33 267.137H1175.51M1136.33 311.659V356.182M1136.33 311.659H1175.51M1136.33 356.182V400.705M1136.33 356.182H1175.51M1136.33 400.705V445.228M1136.33 400.705H1175.51M1136.33 445.228V489.751M1136.33 445.228H1175.51M1136.33 489.751V534.273M1136.33 489.751H1175.51M1136.33 534.273V578.796M1136.33 534.273H1175.51M1136.33 578.796V623.319M1136.33 578.796H1175.51M1136.33 623.319V667.841M1136.33 623.319H1175.51M1136.33 667.841V712.364M1136.33 667.841H1175.51M1136.33 712.364V756.887M1136.33 712.364H1175.51M1136.33 756.887V801.41M1136.33 756.887H1175.51M1136.33 801.41V845.933M1136.33 801.41H1175.51M1136.33 845.933V890.455M1136.33 845.933H1175.51M1136.33 890.455V934.978M1136.33 890.455H1175.51M1136.33 934.978V979.501M1136.33 934.978H1175.51M1136.33 979.501V1022M1136.33 979.501H1175.51M1136.33 1022H1175.51M1175.51 0V44.5228M1175.51 0L1214.69 7.09741e-05M1175.51 44.5228V89.0456M1175.51 44.5228H1214.69M1175.51 89.0456V133.568M1175.51 89.0456L1214.69 89.0457M1175.51 133.568V178.091M1175.51 133.568L1214.69 133.568M1175.51 178.091V222.614M1175.51 178.091L1214.69 178.091M1175.51 222.614V267.137M1175.51 222.614L1214.69 222.614M1175.51 267.137V311.659M1175.51 267.137L1214.69 267.137M1175.51 311.659V356.182M1175.51 311.659H1214.69M1175.51 356.182V400.705M1175.51 356.182H1214.69M1175.51 400.705V445.228M1175.51 400.705H1214.69M1175.51 445.228V489.751M1175.51 445.228H1214.69M1175.51 489.751V534.273M1175.51 489.751H1214.69M1175.51 534.273V578.796M1175.51 534.273H1214.69M1175.51 578.796V623.319M1175.51 578.796H1214.69M1175.51 623.319V667.841M1175.51 623.319H1214.69M1175.51 667.841V712.364M1175.51 667.841H1214.69M1175.51 712.364V756.887M1175.51 712.364H1214.69M1175.51 756.887V801.41M1175.51 756.887H1214.69M1175.51 801.41V845.933M1175.51 801.41H1214.69M1175.51 845.933V890.455M1175.51 845.933H1214.69M1175.51 890.455V934.978M1175.51 890.455H1214.69M1175.51 934.978V979.501M1175.51 934.978H1214.69M1175.51 979.501V1022M1175.51 979.501H1214.69M1175.51 1022H1214.69M1214.69 7.09741e-05V44.5228M1214.69 7.09741e-05H1253.88M1214.69 44.5228V89.0457M1214.69 44.5228H1253.88M1214.69 89.0457V133.568M1214.69 89.0457H1253.88M1214.69 133.568V178.091M1214.69 133.568H1253.88M1214.69 178.091V222.614M1214.69 178.091H1253.88M1214.69 222.614V267.137M1214.69 222.614H1253.88M1214.69 267.137V311.659M1214.69 267.137H1253.88M1214.69 311.659V356.182M1214.69 311.659H1253.88M1214.69 356.182V400.705M1214.69 356.182H1253.88M1214.69 400.705V445.228M1214.69 400.705H1253.88M1214.69 445.228V489.751M1214.69 445.228H1253.88M1214.69 489.751V534.273M1214.69 489.751H1253.88M1214.69 534.273V578.796M1214.69 534.273H1253.88M1214.69 578.796V623.319M1214.69 578.796H1253.88M1214.69 623.319V667.841M1214.69 623.319H1253.88M1214.69 667.841V712.364M1214.69 667.841H1253.88M1214.69 712.364V756.887M1214.69 712.364H1253.88M1214.69 756.887V801.41M1214.69 756.887H1253.88M1214.69 801.41V845.933M1214.69 801.41H1253.88M1214.69 845.933V890.455M1214.69 845.933H1253.88M1214.69 890.455V934.978M1214.69 890.455H1253.88M1214.69 934.978V979.501M1214.69 934.978H1253.88M1214.69 979.501V1022M1214.69 979.501H1253.88M1214.69 1022H1253.88M1253.88 7.09741e-05V44.5228M1253.88 7.09741e-05H1293.06M1253.88 44.5228V89.0457M1253.88 44.5228H1293.06M1253.88 89.0457V133.568M1253.88 89.0457H1293.06M1253.88 133.568V178.091M1253.88 133.568H1293.06M1253.88 178.091V222.614M1253.88 178.091H1293.06M1253.88 222.614V267.137M1253.88 222.614H1293.06M1253.88 267.137V311.659M1253.88 267.137H1293.06M1253.88 311.659V356.182M1253.88 311.659H1293.06M1253.88 356.182V400.705M1253.88 356.182H1293.06M1253.88 400.705V445.228M1253.88 400.705H1293.06M1253.88 445.228V489.751M1253.88 445.228H1293.06M1253.88 489.751V534.273M1253.88 489.751H1293.06M1253.88 534.273V578.796M1253.88 534.273H1293.06M1253.88 578.796V623.319M1253.88 578.796H1293.06M1253.88 623.319V667.841M1253.88 623.319H1293.06M1253.88 667.841V712.364M1253.88 667.841H1293.06M1253.88 712.364V756.887M1253.88 712.364H1293.06M1253.88 756.887V801.41M1253.88 756.887H1293.06M1253.88 801.41V845.933M1253.88 801.41H1293.06M1253.88 845.933V890.455M1253.88 845.933H1293.06M1253.88 890.455V934.978M1253.88 890.455H1293.06M1253.88 934.978V979.501M1253.88 934.978H1293.06M1253.88 979.501V1022M1253.88 979.501H1293.06M1253.88 1022H1293.06M1293.06 7.09741e-05V44.5228M1293.06 7.09741e-05H1332.25M1293.06 44.5228V89.0457M1293.06 44.5228H1332.25M1293.06 89.0457V133.568M1293.06 89.0457H1332.25M1293.06 133.568V178.091M1293.06 133.568H1332.25M1293.06 178.091V222.614M1293.06 178.091H1332.25M1293.06 222.614V267.137M1293.06 222.614H1332.25M1293.06 267.137V311.659M1293.06 267.137H1332.25M1293.06 311.659V356.182M1293.06 311.659H1332.25M1293.06 356.182V400.705M1293.06 356.182H1332.25M1293.06 400.705V445.228M1293.06 400.705H1332.25M1293.06 445.228V489.751M1293.06 445.228H1332.25M1293.06 489.751V534.273M1293.06 489.751H1332.25M1293.06 534.273V578.796M1293.06 534.273H1332.25M1293.06 578.796V623.319M1293.06 578.796H1332.25M1293.06 623.319V667.841M1293.06 623.319H1332.25M1293.06 667.841V712.364M1293.06 667.841H1332.25M1293.06 712.364V756.887M1293.06 712.364H1332.25M1293.06 756.887V801.41M1293.06 756.887H1332.25M1293.06 801.41V845.933M1293.06 801.41H1332.25M1293.06 845.933V890.455M1293.06 845.933H1332.25M1293.06 890.455V934.978M1293.06 890.455H1332.25M1293.06 934.978V979.501M1293.06 934.978H1332.25M1293.06 979.501V1022M1293.06 979.501H1332.25M1293.06 1022H1332.25M1332.25 7.09741e-05V44.5228M1332.25 7.09741e-05H1362.52M1332.25 44.5228V89.0457M1332.25 44.5228H1362.52M1332.25 44.5228L1371.43 44.5227M1332.25 44.5228L1330.46 44.5227M1332.25 89.0457V133.568M1332.25 89.0457H1362.52M1332.25 89.0457L1371.43 89.0456M1332.25 89.0457L1330.46 89.0456M1332.25 133.568V178.091M1332.25 133.568H1362.52M1332.25 133.568L1371.43 133.568M1332.25 133.568L1330.46 133.568M1332.25 178.091V222.614M1332.25 178.091H1362.52M1332.25 178.091L1371.43 178.091M1332.25 178.091L1330.46 178.091M1332.25 222.614V267.137M1332.25 222.614H1362.52M1332.25 222.614L1371.43 222.614M1332.25 222.614L1330.46 222.614M1332.25 267.137V311.659M1332.25 267.137H1362.52M1332.25 267.137L1371.43 267.137M1332.25 267.137L1330.46 267.137M1332.25 311.659V356.182M1332.25 311.659H1362.52M1332.25 311.659L1371.43 311.659M1332.25 311.659L1330.46 311.659M1332.25 356.182V400.705M1332.25 356.182H1362.52M1332.25 356.182L1371.43 356.182M1332.25 356.182L1330.46 356.182M1332.25 400.705V445.228M1332.25 400.705H1362.52M1332.25 400.705L1371.43 400.705M1332.25 400.705L1330.46 400.705M1332.25 445.228V489.751M1332.25 445.228H1371.43M1332.25 489.751V534.273M1332.25 489.751H1362.52M1332.25 489.751L1371.43 489.75M1332.25 489.751L1330.46 489.75M1332.25 534.273V578.796M1332.25 534.273H1371.43M1332.25 578.796V623.319M1332.25 578.796H1371.43M1332.25 623.319V667.841M1332.25 623.319H1371.43M1332.25 667.841V712.364M1332.25 667.841H1371.43M1332.25 712.364V756.887M1332.25 712.364H1362.52M1332.25 712.364L1371.43 712.364M1332.25 712.364L1330.46 712.364M1332.25 756.887V801.41M1332.25 756.887H1362.52M1332.25 756.887L1371.43 756.887M1332.25 756.887L1330.46 756.887M1332.25 801.41V845.933M1332.25 801.41H1362.52M1332.25 801.41L1371.43 801.41M1332.25 801.41L1330.46 801.41M1332.25 845.933V890.455M1332.25 845.933H1371.43M1332.25 890.455V934.978M1332.25 890.455H1371.43M1332.25 934.978V979.501M1332.25 934.978H1362.52M1332.25 934.978L1371.43 934.978M1332.25 934.978L1330.46 934.978M1332.25 979.501V1022M1332.25 979.501H1362.52M1332.25 979.501L1371.43 979.501M1332.25 979.501L1330.46 979.501M1332.25 1022L1362.52 1022M1332.25 1022H1371.43M1371.43 0V44.5227M1371.43 0H1410.61M1371.43 0H1330.46M1371.43 44.5227V89.0456M1371.43 44.5227H1410.61M1371.43 89.0456V133.568M1371.43 89.0456H1410.61M1371.43 133.568V178.091M1371.43 133.568H1410.61M1371.43 178.091V222.614M1371.43 178.091H1410.61M1371.43 222.614V267.137M1371.43 222.614H1410.61M1371.43 267.137V311.659M1371.43 267.137H1410.61M1371.43 311.659V356.182M1371.43 311.659H1410.61M1371.43 356.182V400.705M1371.43 356.182H1410.61M1371.43 400.705V445.228M1371.43 400.705H1410.61M1371.43 445.228V489.75M1371.43 445.228H1410.61M1371.43 489.75V534.273M1371.43 489.75H1410.61M1371.43 534.273V578.796M1371.43 534.273H1410.61M1371.43 578.796V623.319M1371.43 578.796H1410.61M1371.43 623.319V667.841M1371.43 623.319H1410.61M1371.43 667.841V712.364M1371.43 667.841H1410.61M1371.43 712.364V756.887M1371.43 712.364H1410.61M1371.43 756.887V801.41M1371.43 756.887H1410.61M1371.43 801.41V845.933M1371.43 801.41H1410.61M1371.43 845.933V890.455M1371.43 845.933H1410.61M1371.43 890.455V934.978M1371.43 890.455H1410.61M1371.43 934.978V979.501M1371.43 934.978H1410.61M1371.43 979.501V1022M1371.43 979.501H1410.61M1371.43 1022H1410.61M1410.61 0V44.5227M1410.61 0H1449.8M1410.61 44.5227V89.0456M1410.61 44.5227H1449.8M1410.61 89.0456V133.568M1410.61 89.0456H1449.8M1410.61 133.568V178.091M1410.61 133.568H1449.8M1410.61 178.091V222.614M1410.61 178.091H1449.8M1410.61 222.614V267.137M1410.61 222.614H1449.8M1410.61 267.137V311.659M1410.61 267.137H1449.8M1410.61 311.659V356.182M1410.61 311.659H1449.8M1410.61 356.182V400.705M1410.61 356.182H1449.8M1410.61 400.705V445.228M1410.61 400.705H1449.8M1410.61 445.228V489.75M1410.61 445.228H1449.8M1410.61 489.75V534.273M1410.61 489.75H1449.8M1410.61 534.273V578.796M1410.61 534.273H1449.8M1410.61 578.796V623.319M1410.61 578.796H1449.8M1410.61 623.319V667.841M1410.61 623.319H1449.8M1410.61 667.841V712.364M1410.61 667.841H1449.8M1410.61 712.364V756.887M1410.61 712.364H1449.8M1410.61 756.887V801.41M1410.61 756.887H1449.8M1410.61 801.41V845.933M1410.61 801.41H1449.8M1410.61 845.933V890.455M1410.61 845.933H1449.8M1410.61 890.455V934.978M1410.61 890.455H1449.8M1410.61 934.978V979.501M1410.61 934.978H1449.8M1410.61 979.501V1022M1410.61 979.501H1449.8M1410.61 1022H1449.8M1449.8 0V44.5227M1449.8 0L1488.98 7.09741e-05M1449.8 44.5227V89.0456M1449.8 44.5227L1488.98 44.5228M1449.8 89.0456V133.568M1449.8 89.0456L1488.98 89.0457M1449.8 133.568V178.091M1449.8 133.568L1488.98 133.568M1449.8 178.091V222.614M1449.8 178.091L1488.98 178.091M1449.8 222.614V267.137M1449.8 222.614L1488.98 222.614M1449.8 267.137V311.659M1449.8 267.137L1488.98 267.137M1449.8 311.659V356.182M1449.8 311.659L1488.98 311.659M1449.8 356.182V400.705M1449.8 356.182L1488.98 356.182M1449.8 400.705V445.228M1449.8 400.705L1488.98 400.705M1449.8 445.228V489.75M1449.8 445.228H1488.98M1449.8 489.75V534.273M1449.8 489.75L1488.98 489.751M1449.8 534.273V578.796M1449.8 534.273H1488.98M1449.8 578.796V623.319M1449.8 578.796H1488.98M1449.8 623.319V667.841M1449.8 623.319H1488.98M1449.8 667.841V712.364M1449.8 667.841H1488.98M1449.8 712.364V756.887M1449.8 712.364L1488.98 712.364M1449.8 756.887V801.41M1449.8 756.887L1488.98 756.887M1449.8 801.41V845.933M1449.8 801.41L1488.98 801.41M1449.8 845.933V890.455M1449.8 845.933H1488.98M1449.8 890.455V934.978M1449.8 890.455H1488.98M1449.8 934.978V979.501M1449.8 934.978L1488.98 934.978M1449.8 979.501V1022M1449.8 979.501L1488.98 979.501M1449.8 1022H1488.98M1488.98 7.09741e-05V44.5228M1488.98 7.09741e-05H1528.16M1488.98 44.5228V89.0457M1488.98 44.5228L1528.16 44.5227M1488.98 89.0457V133.568M1488.98 89.0457L1528.16 89.0456M1488.98 133.568V178.091M1488.98 133.568L1528.16 133.568M1488.98 178.091V222.614M1488.98 178.091L1528.16 178.091M1488.98 222.614V267.137M1488.98 222.614L1528.16 222.614M1488.98 267.137V311.659M1488.98 267.137L1528.16 267.137M1488.98 311.659V356.182M1488.98 311.659H1528.16M1488.98 356.182V400.705M1488.98 356.182H1528.16M1488.98 400.705V445.228M1488.98 400.705H1528.16M1488.98 445.228V489.751M1488.98 445.228H1528.16M1488.98 489.751V534.273M1488.98 489.751H1528.16M1488.98 534.273V578.796M1488.98 534.273H1528.16M1488.98 578.796V623.319M1488.98 578.796H1528.16M1488.98 623.319V667.841M1488.98 623.319H1528.16M1488.98 667.841V712.364M1488.98 667.841H1528.16M1488.98 712.364V756.887M1488.98 712.364H1528.16M1488.98 756.887V801.41M1488.98 756.887H1528.16M1488.98 801.41V845.933M1488.98 801.41H1528.16M1488.98 845.933V890.455M1488.98 845.933H1528.16M1488.98 890.455V934.978M1488.98 890.455H1528.16M1488.98 934.978V979.501M1488.98 934.978H1528.16M1488.98 979.501V1022M1488.98 979.501H1528.16M1488.98 1022H1528.16M1528.16 7.09741e-05V44.5227M1528.16 7.09741e-05H1558.44M1528.16 44.5227V89.0456M1528.16 44.5227L1558.44 44.5228M1528.16 44.5227H1567.35M1528.16 44.5227H1526.38M1528.16 89.0456V133.568M1528.16 89.0456L1558.44 89.0457M1528.16 89.0456H1567.35M1528.16 89.0456H1526.38M1528.16 133.568V178.091M1528.16 133.568L1558.44 133.568M1528.16 133.568H1567.35M1528.16 133.568H1526.38M1528.16 178.091V222.614M1528.16 178.091L1558.44 178.091M1528.16 178.091H1567.35M1528.16 178.091H1526.38M1528.16 222.614V267.137M1528.16 222.614L1558.44 222.614M1528.16 222.614H1567.35M1528.16 222.614H1526.38M1528.16 267.137V311.659M1528.16 267.137L1558.44 267.137M1528.16 267.137H1567.35M1528.16 267.137H1526.38M1528.16 311.659V356.182M1528.16 311.659H1558.44M1528.16 311.659L1567.35 311.659M1528.16 311.659L1526.38 311.659M1528.16 356.182V400.705M1528.16 356.182H1558.44M1528.16 356.182L1567.35 356.182M1528.16 356.182L1526.38 356.182M1528.16 400.705V445.228M1528.16 400.705H1558.44M1528.16 400.705L1567.35 400.705M1528.16 400.705L1526.38 400.705M1528.16 445.228V489.751M1528.16 445.228H1567.35M1528.16 489.751V534.273M1528.16 489.751H1558.44M1528.16 489.751L1567.35 489.75M1528.16 489.751L1526.38 489.75M1528.16 534.273V578.796M1528.16 534.273H1567.35M1528.16 578.796V623.319M1528.16 578.796H1567.35M1528.16 623.319V667.841M1528.16 623.319H1567.35M1528.16 667.841V712.364M1528.16 667.841H1567.35M1528.16 712.364V756.887M1528.16 712.364H1558.44M1528.16 712.364L1567.35 712.364M1528.16 712.364L1526.38 712.364M1528.16 756.887V801.41M1528.16 756.887H1558.44M1528.16 756.887L1567.35 756.887M1528.16 756.887L1526.38 756.887M1528.16 801.41V845.933M1528.16 801.41H1558.44M1528.16 801.41L1567.35 801.41M1528.16 801.41L1526.38 801.41M1528.16 845.933V890.455M1528.16 845.933H1567.35M1528.16 890.455V934.978M1528.16 890.455H1567.35M1528.16 934.978V979.501M1528.16 934.978H1558.44M1528.16 934.978L1567.35 934.978M1528.16 934.978L1526.38 934.978M1528.16 979.501V1022M1528.16 979.501H1558.44M1528.16 979.501L1567.35 979.501M1528.16 979.501L1526.38 979.501M1528.16 1022L1558.44 1022M1528.16 1022H1567.35M1567.35 0V44.5227M1567.35 0H1606.53M1567.35 0H1526.38M1567.35 44.5227V89.0456M1567.35 44.5227H1606.53M1567.35 89.0456V133.568M1567.35 89.0456H1606.53M1567.35 133.568V178.091M1567.35 133.568H1606.53M1567.35 178.091V222.614M1567.35 178.091H1606.53M1567.35 222.614V267.137M1567.35 222.614H1606.53M1567.35 267.137V311.659M1567.35 267.137H1606.53M1567.35 311.659V356.182M1567.35 311.659H1606.53M1567.35 356.182V400.705M1567.35 356.182H1606.53M1567.35 400.705V445.228M1567.35 400.705H1606.53M1567.35 445.228V489.75M1567.35 445.228H1606.53M1567.35 489.75V534.273M1567.35 489.75H1606.53M1567.35 534.273V578.796M1567.35 534.273H1606.53M1567.35 578.796V623.319M1567.35 578.796H1606.53M1567.35 623.319V667.841M1567.35 623.319H1606.53M1567.35 667.841V712.364M1567.35 667.841H1606.53M1567.35 712.364V756.887M1567.35 712.364H1606.53M1567.35 756.887V801.41M1567.35 756.887H1606.53M1567.35 801.41V845.933M1567.35 801.41H1606.53M1567.35 845.933V890.455M1567.35 845.933H1606.53M1567.35 890.455V934.978M1567.35 890.455H1606.53M1567.35 934.978V979.501M1567.35 934.978H1606.53M1567.35 979.501V1022M1567.35 979.501H1606.53M1567.35 1022H1606.53M1606.53 0V44.5227M1606.53 0H1645.71M1606.53 44.5227V89.0456M1606.53 44.5227H1645.71M1606.53 89.0456V133.568M1606.53 89.0456H1645.71M1606.53 133.568V178.091M1606.53 133.568H1645.71M1606.53 178.091V222.614M1606.53 178.091H1645.71M1606.53 222.614V267.137M1606.53 222.614H1645.71M1606.53 267.137V311.659M1606.53 267.137H1645.71M1606.53 311.659V356.182M1606.53 311.659H1645.71M1606.53 356.182V400.705M1606.53 356.182H1645.71M1606.53 400.705V445.228M1606.53 400.705H1645.71M1606.53 445.228V489.75M1606.53 445.228H1645.71M1606.53 489.75V534.273M1606.53 489.75H1645.71M1606.53 534.273V578.796M1606.53 534.273H1645.71M1606.53 578.796V623.319M1606.53 578.796H1645.71M1606.53 623.319V667.841M1606.53 623.319H1645.71M1606.53 667.841V712.364M1606.53 667.841H1645.71M1606.53 712.364V756.887M1606.53 712.364H1645.71M1606.53 756.887V801.41M1606.53 756.887H1645.71M1606.53 801.41V845.933M1606.53 801.41H1645.71M1606.53 845.933V890.455M1606.53 845.933H1645.71M1606.53 890.455V934.978M1606.53 890.455H1645.71M1606.53 934.978V979.501M1606.53 934.978H1645.71M1606.53 979.501V1022M1606.53 979.501H1645.71M1606.53 1022H1645.71M1645.71 0V44.5227M1645.71 0H1684.9M1645.71 44.5227V89.0456M1645.71 44.5227H1684.9M1645.71 89.0456V133.568M1645.71 89.0456H1684.9M1645.71 133.568V178.091M1645.71 133.568H1684.9M1645.71 178.091V222.614M1645.71 178.091H1684.9M1645.71 222.614V267.137M1645.71 222.614H1684.9M1645.71 267.137V311.659M1645.71 267.137H1684.9M1645.71 311.659V356.182M1645.71 311.659H1684.9M1645.71 356.182V400.705M1645.71 356.182H1684.9M1645.71 400.705V445.228M1645.71 400.705H1684.9M1645.71 445.228V489.75M1645.71 445.228H1684.9M1645.71 489.75V534.273M1645.71 489.75H1684.9M1645.71 534.273V578.796M1645.71 534.273H1684.9M1645.71 578.796V623.319M1645.71 578.796H1684.9M1645.71 623.319V667.841M1645.71 623.319H1684.9M1645.71 667.841V712.364M1645.71 667.841H1684.9M1645.71 712.364V756.887M1645.71 712.364H1684.9M1645.71 756.887V801.41M1645.71 756.887H1684.9M1645.71 801.41V845.933M1645.71 801.41H1684.9M1645.71 845.933V890.455M1645.71 845.933H1684.9M1645.71 890.455V934.978M1645.71 890.455H1684.9M1645.71 934.978V979.501M1645.71 934.978H1684.9M1645.71 979.501V1022M1645.71 979.501H1684.9M1645.71 1022H1684.9M1684.9 0V44.5227M1684.9 0H1724.08M1684.9 44.5227V89.0456M1684.9 44.5227L1724.08 44.5228M1684.9 89.0456L1684.9 133.568M1684.9 89.0456L1724.08 89.0456M1684.9 133.568V178.091M1684.9 133.568L1724.08 133.568M1684.9 178.091V222.614M1684.9 178.091L1724.08 178.091M1684.9 222.614V267.137M1684.9 222.614L1724.08 222.614M1684.9 267.137V311.659M1684.9 267.137L1724.08 267.137M1684.9 311.659V356.182M1684.9 311.659H1724.08M1684.9 356.182V400.705M1684.9 356.182H1724.08M1684.9 400.705V445.228M1684.9 400.705H1724.08M1684.9 445.228V489.75M1684.9 445.228H1724.08M1684.9 489.75V534.273M1684.9 489.75H1724.08M1684.9 534.273V578.796M1684.9 534.273H1724.08M1684.9 578.796V623.319M1684.9 578.796H1724.08M1684.9 623.319V667.841M1684.9 623.319H1724.08M1684.9 667.841V712.364M1684.9 667.841H1724.08M1684.9 712.364V756.887M1684.9 712.364H1724.08M1684.9 756.887V801.41M1684.9 756.887H1724.08M1684.9 801.41V845.933M1684.9 801.41H1724.08M1684.9 845.933V890.455M1684.9 845.933H1724.08M1684.9 890.455V934.978M1684.9 890.455H1724.08M1684.9 934.978V979.501M1684.9 934.978H1724.08M1684.9 979.501V1022M1684.9 979.501H1724.08M1684.9 1022H1724.08M1724.08 0V44.5228M1724.08 0H1763.27M1724.08 44.5228V89.0456M1724.08 44.5228H1763.27M1724.08 89.0456L1724.08 133.568M1724.08 89.0456H1763.27M1724.08 133.568V178.091M1724.08 133.568H1763.27M1724.08 178.091V222.614M1724.08 178.091H1763.27M1724.08 222.614V267.137M1724.08 222.614H1763.27M1724.08 267.137V311.659M1724.08 267.137H1763.27M1724.08 311.659V356.182M1724.08 311.659H1763.27M1724.08 356.182V400.705M1724.08 356.182H1763.27M1724.08 400.705V445.228M1724.08 400.705H1763.27M1724.08 445.228V489.75M1724.08 445.228H1763.27M1724.08 489.75V534.273M1724.08 489.75H1763.27M1724.08 534.273V578.796M1724.08 534.273H1763.27M1724.08 578.796V623.319M1724.08 578.796H1763.27M1724.08 623.319V667.841M1724.08 623.319H1763.27M1724.08 667.841V712.364M1724.08 667.841H1763.27M1724.08 712.364V756.887M1724.08 712.364H1763.27M1724.08 756.887V801.41M1724.08 756.887H1763.27M1724.08 801.41V845.933M1724.08 801.41H1763.27M1724.08 845.933V890.455M1724.08 845.933H1763.27M1724.08 890.455V934.978M1724.08 890.455H1763.27M1724.08 934.978V979.501M1724.08 934.978H1763.27M1724.08 979.501V1022M1724.08 979.501H1763.27M1724.08 1022H1763.27M1763.27 0V44.5228M1763.27 0H1802.45M1763.27 44.5228V89.0456M1763.27 44.5228H1802.45M1763.27 89.0456V133.568M1763.27 89.0456H1802.45M1763.27 133.568V178.091M1763.27 133.568H1802.45M1763.27 178.091V222.614M1763.27 178.091H1802.45M1763.27 222.614V267.137M1763.27 222.614H1802.45M1763.27 267.137V311.659M1763.27 267.137H1802.45M1763.27 311.659V356.182M1763.27 311.659H1802.45M1763.27 356.182V400.705M1763.27 356.182H1802.45M1763.27 400.705V445.228M1763.27 400.705H1802.45M1763.27 445.228V489.75M1763.27 445.228H1802.45M1763.27 489.75V534.273M1763.27 489.75H1802.45M1763.27 534.273V578.796M1763.27 534.273H1802.45M1763.27 578.796V623.319M1763.27 578.796H1802.45M1763.27 623.319V667.841M1763.27 623.319H1802.45M1763.27 667.841V712.364M1763.27 667.841H1802.45M1763.27 712.364V756.887M1763.27 712.364H1802.45M1763.27 756.887V801.41M1763.27 756.887H1802.45M1763.27 801.41V845.933M1763.27 801.41H1802.45M1763.27 845.933V890.455M1763.27 845.933H1802.45M1763.27 890.455V934.978M1763.27 890.455H1802.45M1763.27 934.978V979.501M1763.27 934.978H1802.45M1763.27 979.501V1022M1763.27 979.501H1802.45M1763.27 1022H1802.45M1802.45 0V44.5228M1802.45 0H1841.63M1802.45 44.5228V89.0456M1802.45 44.5228H1841.63M1802.45 89.0456V133.568M1802.45 89.0456H1841.63M1802.45 133.568V178.091M1802.45 133.568H1841.63M1802.45 178.091V222.614M1802.45 178.091H1841.63M1802.45 222.614V267.137M1802.45 222.614H1841.63M1802.45 267.137V311.659M1802.45 267.137H1841.63M1802.45 311.659V356.182M1802.45 311.659H1841.63M1802.45 356.182V400.705M1802.45 356.182H1841.63M1802.45 400.705V445.228M1802.45 400.705H1841.63M1802.45 445.228V489.75M1802.45 445.228H1841.63M1802.45 489.75V534.273M1802.45 489.75H1841.63M1802.45 534.273V578.796M1802.45 534.273H1841.63M1802.45 578.796V623.319M1802.45 578.796H1841.63M1802.45 623.319V667.841M1802.45 623.319H1841.63M1802.45 667.841V712.364M1802.45 667.841H1841.63M1802.45 712.364V756.887M1802.45 712.364H1841.63M1802.45 756.887V801.41M1802.45 756.887H1841.63M1802.45 801.41V845.933M1802.45 801.41H1841.63M1802.45 845.933V890.455M1802.45 845.933H1841.63M1802.45 890.455V934.978M1802.45 890.455H1841.63M1802.45 934.978V979.501M1802.45 934.978H1841.63M1802.45 979.501V1022M1802.45 979.501H1841.63M1802.45 1022H1841.63M1841.63 0V44.5228M1841.63 0H1880.82M1841.63 44.5228V89.0456M1841.63 44.5228H1880.82M1841.63 89.0456V133.568M1841.63 89.0456H1880.82M1841.63 133.568V178.091M1841.63 133.568H1880.82M1841.63 178.091V222.614M1841.63 178.091H1880.82M1841.63 222.614V267.137M1841.63 222.614H1880.82M1841.63 267.137V311.659M1841.63 267.137H1880.82M1841.63 311.659V356.182M1841.63 311.659L1880.82 311.659M1841.63 356.182V400.705M1841.63 356.182L1880.82 356.182M1841.63 400.705V445.228M1841.63 400.705L1880.82 400.705M1841.63 445.228V489.75M1841.63 445.228H1880.82M1841.63 489.75V534.273M1841.63 489.75L1880.82 489.751M1841.63 534.273V578.796M1841.63 534.273H1880.82M1841.63 578.796V623.319M1841.63 578.796H1880.82M1841.63 623.319V667.841M1841.63 623.319H1880.82M1841.63 667.841V712.364M1841.63 667.841H1880.82M1841.63 712.364V756.887M1841.63 712.364L1880.82 712.364M1841.63 756.887V801.41M1841.63 756.887L1880.82 756.887M1841.63 801.41V845.933M1841.63 801.41L1880.82 801.41M1841.63 845.933V890.455M1841.63 845.933H1880.82M1841.63 890.455V934.978M1841.63 890.455H1880.82M1841.63 934.978V979.501M1841.63 934.978L1880.82 934.978M1841.63 979.501V1022M1841.63 979.501L1880.82 979.501M1841.63 1022H1880.82M1880.82 0V44.5228M1880.82 0H1920V44.5228M1880.82 44.5228V89.0456M1880.82 44.5228H1920M1880.82 89.0456V133.568M1880.82 89.0456H1920M1880.82 133.568V178.091M1880.82 133.568H1920M1880.82 178.091V222.614M1880.82 178.091H1920M1880.82 222.614V267.137M1880.82 222.614H1920M1880.82 267.137V311.659M1880.82 267.137H1920M1880.82 311.659V356.182M1880.82 311.659H1920M1880.82 356.182V400.705M1880.82 356.182H1920M1880.82 400.705V445.228M1880.82 400.705H1920M1880.82 445.228V489.751M1880.82 445.228H1920M1880.82 489.751V534.273M1880.82 489.751H1920M1880.82 534.273V578.796M1880.82 534.273H1920M1880.82 578.796V623.319M1880.82 578.796H1920M1880.82 623.319V667.841M1880.82 623.319H1920M1880.82 667.841V712.364M1880.82 667.841H1920M1880.82 712.364V756.887M1880.82 712.364H1920M1880.82 756.887V801.41M1880.82 756.887H1920M1880.82 801.41V845.933M1880.82 801.41H1920M1880.82 845.933V890.455M1880.82 845.933H1920M1880.82 890.455V934.978M1880.82 890.455H1920M1880.82 934.978V979.501M1880.82 934.978H1920M1880.82 979.501V1022M1880.82 979.501H1920M1880.82 1022H1920V979.501M1920 44.5228V89.0456M1920 89.0456V133.568M1920 133.568V178.091M1920 178.091V222.614M1920 222.614V267.137M1920 267.137V311.659M1920 311.659V356.182M1920 356.182V400.705M1920 400.705V445.228M1920 445.228V489.751M1920 489.751V534.273M1920 534.273V578.796M1920 578.796V623.319M1920 623.319V667.841M1920 667.841V712.364M1920 712.364V756.887M1920 756.887V801.41M1920 801.41V845.933M1920 845.933V890.455M1920 890.455V934.978M1920 934.978V979.501" stroke="url(#paint0_radial_6_240)"/>
  <defs>
    <radialGradient id="paint0_radial_6_240" cx="0" cy="0" r="1" gradientUnits="userSpaceOnUse" gradientTransform="translate(960 511) rotate(90) scale(511 960)">
      <stop stop-color="white" stop-opacity="0.1"/>
      <stop offset="1" stop-color="white" stop-opacity="0"/>
    </radialGradient>
  </defs>
</svg>
