<svg viewBox="0 0 20 14" fill="none" xmlns="http://www.w3.org/2000/svg">
  <path fill-rule="evenodd" clip-rule="evenodd"
        d="M19.0417 7C19.0417 6.51677 18.6499 6.125 18.1667 6.125H1.83337C1.35013 6.125 0.958374 6.51677 0.958374 7C0.958374 7.48323 1.35013 7.875 1.83337 7.875H18.1667C18.6499 7.875 19.0417 7.48323 19.0417 7Z"
        fill="white"/>
  <path fill-rule="evenodd" clip-rule="evenodd"
        d="M19.0417 1.16667C19.0417 0.683427 18.6499 0.291672 18.1667 0.291672H1.83337C1.35013 0.291672 0.958374 0.683427 0.958374 1.16667C0.958374 1.64992 1.35013 2.04167 1.83337 2.04167H18.1667C18.6499 2.04167 19.0417 1.64992 19.0417 1.16667Z"
        fill="white"/>
  <path fill-rule="evenodd" clip-rule="evenodd"
        d="M19.0417 12.8333C19.0417 12.3501 18.6499 11.9583 18.1667 11.9583H1.83337C1.35013 11.9583 0.958374 12.3501 0.958374 12.8333C0.958374 13.3166 1.35013 13.7083 1.83337 13.7083H18.1667C18.6499 13.7083 19.0417 13.3166 19.0417 12.8333Z"
        fill="white"/>
</svg>
