<svg viewBox="0 0 26 26" fill="none" xmlns="http://www.w3.org/2000/svg">
  <path d="M14.2494 0.839996C15.6179 0.842258 16.3114 0.849494 16.9107 0.867333L17.1467 0.875055C17.4194 0.884747 17.6884 0.896907 18.0127 0.912108C19.3067 0.971888 20.1894 1.1766 20.9646 1.47757C21.7661 1.78664 22.4431 2.20415 23.119 2.88006C23.7939 3.55598 24.2115 4.23494 24.5215 5.03449C24.8214 5.80869 25.0262 6.69235 25.087 7.98643C25.1015 8.3107 25.1131 8.57969 25.1228 8.85238L25.1304 9.08839C25.1482 9.6876 25.1563 10.3812 25.1589 11.7497L25.1598 12.6565C25.16 12.7673 25.16 12.8816 25.16 12.9996L25.1598 13.3426L25.1591 14.2494C25.1568 15.618 25.1496 16.3115 25.1318 16.9107L25.124 17.1468C25.1144 17.4194 25.1022 17.6884 25.087 18.0127C25.0272 19.3067 24.8214 20.1894 24.5215 20.9647C24.2124 21.7661 23.7939 22.4431 23.119 23.119C22.4431 23.7939 21.7631 24.2115 20.9646 24.5216C20.1894 24.8215 19.3067 25.0262 18.0127 25.087C17.6884 25.1015 17.4194 25.1132 17.1467 25.1228L16.9107 25.1304C16.3114 25.1482 15.6179 25.1563 14.2494 25.1589L13.3426 25.1599C13.2318 25.16 13.1175 25.16 12.9996 25.16L12.6565 25.1599L11.7497 25.1591C10.3812 25.1568 9.68757 25.1497 9.08836 25.1318L8.85235 25.124C8.57966 25.1144 8.31067 25.1022 7.9864 25.087C6.69232 25.0272 5.81069 24.8215 5.03446 24.5216C4.23389 24.2125 3.55595 23.7939 2.88003 23.119C2.20412 22.4431 1.78763 21.7631 1.47754 20.9647C1.17657 20.1894 0.972879 19.3067 0.912077 18.0127C0.897631 17.6884 0.885847 17.4194 0.876301 17.1468L0.868652 16.9107C0.850862 16.3115 0.842751 15.618 0.840124 14.2494L0.839966 11.7497C0.842228 10.3812 0.849463 9.6876 0.867302 9.08839L0.875024 8.85238C0.884716 8.57969 0.896877 8.3107 0.912077 7.98643C0.971858 6.69134 1.17657 5.80971 1.47754 5.03449C1.78661 4.23392 2.20412 3.55598 2.88003 2.88006C3.55595 2.20415 4.23491 1.78766 5.03446 1.47757C5.80968 1.1766 6.69131 0.97291 7.9864 0.912108C8.31067 0.897661 8.57966 0.885878 8.85235 0.876332L9.08836 0.868683C9.68757 0.850892 10.3812 0.842781 11.7497 0.840155L14.2494 0.839996ZM12.9996 6.91935C9.63973 6.91935 6.91932 9.64271 6.91932 12.9996C6.91932 16.3594 9.64268 19.0798 12.9996 19.0798C16.3594 19.0798 19.0798 16.3563 19.0798 12.9996C19.0798 9.63976 16.3563 6.91935 12.9996 6.91935ZM12.9996 9.35144C15.0144 9.35144 16.6477 10.9841 16.6477 12.9996C16.6477 15.0144 15.0149 16.6477 12.9996 16.6477C10.9847 16.6477 9.35141 15.0149 9.35141 12.9996C9.35141 10.9847 10.9841 9.35144 12.9996 9.35144ZM19.3838 5.09529C18.5456 5.09529 17.8637 5.77615 17.8637 6.61431C17.8637 7.45245 18.5446 8.13437 19.3838 8.13437C20.2219 8.13437 20.9038 7.45351 20.9038 6.61431C20.9038 5.77615 20.2208 5.09423 19.3838 5.09529Z" fill="white"/>
</svg>
