<svg xmlns="http://www.w3.org/2000/svg">
  <symbol id="instagram" viewBox="0 0 26 26" fill="none" xmlns="http://www.w3.org/2000/svg">
    <path
      d="M14.2494 0.839996C15.6179 0.842258 16.3114 0.849494 16.9107 0.867333L17.1467 0.875055C17.4194 0.884747 17.6884 0.896907 18.0127 0.912108C19.3067 0.971888 20.1894 1.1766 20.9646 1.47757C21.7661 1.78664 22.4431 2.20415 23.119 2.88006C23.7939 3.55598 24.2115 4.23494 24.5215 5.03449C24.8214 5.80869 25.0262 6.69235 25.087 7.98643C25.1015 8.3107 25.1131 8.57969 25.1228 8.85238L25.1304 9.08839C25.1482 9.6876 25.1563 10.3812 25.1589 11.7497L25.1598 12.6565C25.16 12.7673 25.16 12.8816 25.16 12.9996L25.1598 13.3426L25.1591 14.2494C25.1568 15.618 25.1496 16.3115 25.1318 16.9107L25.124 17.1468C25.1144 17.4194 25.1022 17.6884 25.087 18.0127C25.0272 19.3067 24.8214 20.1894 24.5215 20.9647C24.2124 21.7661 23.7939 22.4431 23.119 23.119C22.4431 23.7939 21.7631 24.2115 20.9646 24.5216C20.1894 24.8215 19.3067 25.0262 18.0127 25.087C17.6884 25.1015 17.4194 25.1132 17.1467 25.1228L16.9107 25.1304C16.3114 25.1482 15.6179 25.1563 14.2494 25.1589L13.3426 25.1599C13.2318 25.16 13.1175 25.16 12.9996 25.16L12.6565 25.1599L11.7497 25.1591C10.3812 25.1568 9.68757 25.1497 9.08836 25.1318L8.85235 25.124C8.57966 25.1144 8.31067 25.1022 7.9864 25.087C6.69232 25.0272 5.81069 24.8215 5.03446 24.5216C4.23389 24.2125 3.55595 23.7939 2.88003 23.119C2.20412 22.4431 1.78763 21.7631 1.47754 20.9647C1.17657 20.1894 0.972879 19.3067 0.912077 18.0127C0.897631 17.6884 0.885847 17.4194 0.876301 17.1468L0.868652 16.9107C0.850862 16.3115 0.842751 15.618 0.840124 14.2494L0.839966 11.7497C0.842228 10.3812 0.849463 9.6876 0.867302 9.08839L0.875024 8.85238C0.884716 8.57969 0.896877 8.3107 0.912077 7.98643C0.971858 6.69134 1.17657 5.80971 1.47754 5.03449C1.78661 4.23392 2.20412 3.55598 2.88003 2.88006C3.55595 2.20415 4.23491 1.78766 5.03446 1.47757C5.80968 1.1766 6.69131 0.97291 7.9864 0.912108C8.31067 0.897661 8.57966 0.885878 8.85235 0.876332L9.08836 0.868683C9.68757 0.850892 10.3812 0.842781 11.7497 0.840155L14.2494 0.839996ZM12.9996 6.91935C9.63973 6.91935 6.91932 9.64271 6.91932 12.9996C6.91932 16.3594 9.64268 19.0798 12.9996 19.0798C16.3594 19.0798 19.0798 16.3563 19.0798 12.9996C19.0798 9.63976 16.3563 6.91935 12.9996 6.91935ZM12.9996 9.35144C15.0144 9.35144 16.6477 10.9841 16.6477 12.9996C16.6477 15.0144 15.0149 16.6477 12.9996 16.6477C10.9847 16.6477 9.35141 15.0149 9.35141 12.9996C9.35141 10.9847 10.9841 9.35144 12.9996 9.35144ZM19.3838 5.09529C18.5456 5.09529 17.8637 5.77615 17.8637 6.61431C17.8637 7.45245 18.5446 8.13437 19.3838 8.13437C20.2219 8.13437 20.9038 7.45351 20.9038 6.61431C20.9038 5.77615 20.2208 5.09423 19.3838 5.09529Z"
      fill="white"/>
  </symbol>
  <symbol id="telegram" viewBox="0 0 26 26" fill="none" xmlns="http://www.w3.org/2000/svg">
    <path fill-rule="evenodd" clip-rule="evenodd"
          d="M25.5714 13C25.5714 19.943 19.943 25.5714 13 25.5714C6.05702 25.5714 0.428589 19.943 0.428589 13C0.428589 6.05702 6.05702 0.428589 13 0.428589C19.943 0.428589 25.5714 6.05702 25.5714 13ZM14.2047 9.14252C12.045 10.0754 5.81775 12.7247 5.81775 12.7247C4.34194 13.3217 5.20579 13.8814 5.20579 13.8814C5.20579 13.8814 6.46563 14.3292 7.54554 14.665C8.62539 15.0008 9.20134 14.6277 9.20134 14.6277C9.20134 14.6277 11.721 12.9113 14.2767 11.0828C16.0765 9.81419 15.6445 10.859 15.2126 11.3068C14.2767 12.2769 12.7289 13.8068 11.433 15.0382C10.8571 15.5606 11.1451 16.0083 11.3971 16.2322C12.1299 16.875 13.8559 18.044 14.6395 18.5748C14.8566 18.7218 15.0014 18.8199 15.0326 18.8442C15.2126 18.9935 16.2205 19.6651 16.8324 19.5159C17.4443 19.3666 17.5163 18.5084 17.5163 18.5084C17.5163 18.5084 17.9843 15.4486 18.4162 12.65C18.4962 12.1006 18.5762 11.5626 18.6508 11.061C18.8447 9.75722 19.0021 8.69887 19.0281 8.3216C19.1361 7.05295 17.8403 7.57531 17.8403 7.57531C17.8403 7.57531 15.0326 8.7694 14.2047 9.14252Z"
          fill="white"/>
  </symbol>
  <symbol id="hamburger" viewBox="0 0 20 14" fill="none" xmlns="http://www.w3.org/2000/svg">
    <path fill-rule="evenodd" clip-rule="evenodd"
          d="M19.0417 7C19.0417 6.51677 18.6499 6.125 18.1667 6.125H1.83337C1.35013 6.125 0.958374 6.51677 0.958374 7C0.958374 7.48323 1.35013 7.875 1.83337 7.875H18.1667C18.6499 7.875 19.0417 7.48323 19.0417 7Z"
          fill="white"/>
    <path fill-rule="evenodd" clip-rule="evenodd"
          d="M19.0417 1.16667C19.0417 0.683427 18.6499 0.291672 18.1667 0.291672H1.83337C1.35013 0.291672 0.958374 0.683427 0.958374 1.16667C0.958374 1.64992 1.35013 2.04167 1.83337 2.04167H18.1667C18.6499 2.04167 19.0417 1.64992 19.0417 1.16667Z"
          fill="white"/>
    <path fill-rule="evenodd" clip-rule="evenodd"
          d="M19.0417 12.8333C19.0417 12.3501 18.6499 11.9583 18.1667 11.9583H1.83337C1.35013 11.9583 0.958374 12.3501 0.958374 12.8333C0.958374 13.3166 1.35013 13.7083 1.83337 13.7083H18.1667C18.6499 13.7083 19.0417 13.3166 19.0417 12.8333Z"
          fill="white"/>
  </symbol>
</svg>
