<svg viewBox="0 0 26 26" fill="none" xmlns="http://www.w3.org/2000/svg">
  <path fill-rule="evenodd" clip-rule="evenodd" d="M25.5714 13C25.5714 19.943 19.943 25.5714 13 25.5714C6.05702 25.5714 0.428589 19.943 0.428589 13C0.428589 6.05702 6.05702 0.428589 13 0.428589C19.943 0.428589 25.5714 6.05702 25.5714 13ZM14.2047 9.14252C12.045 10.0754 5.81775 12.7247 5.81775 12.7247C4.34194 13.3217 5.20579 13.8814 5.20579 13.8814C5.20579 13.8814 6.46563 14.3292 7.54554 14.665C8.62539 15.0008 9.20134 14.6277 9.20134 14.6277C9.20134 14.6277 11.721 12.9113 14.2767 11.0828C16.0765 9.81419 15.6445 10.859 15.2126 11.3068C14.2767 12.2769 12.7289 13.8068 11.433 15.0382C10.8571 15.5606 11.1451 16.0083 11.3971 16.2322C12.1299 16.875 13.8559 18.044 14.6395 18.5748C14.8566 18.7218 15.0014 18.8199 15.0326 18.8442C15.2126 18.9935 16.2205 19.6651 16.8324 19.5159C17.4443 19.3666 17.5163 18.5084 17.5163 18.5084C17.5163 18.5084 17.9843 15.4486 18.4162 12.65C18.4962 12.1006 18.5762 11.5626 18.6508 11.061C18.8447 9.75722 19.0021 8.69887 19.0281 8.3216C19.1361 7.05295 17.8403 7.57531 17.8403 7.57531C17.8403 7.57531 15.0326 8.7694 14.2047 9.14252Z" fill="white"/>
</svg>
